<svg width="72" height="74" viewBox="0 0 72 74" fill="none" xmlns="http://www.w3.org/2000/svg">
<g filter="url(#filter0_d_79_2145)">
<g filter="url(#filter1_d_79_2145)">
<path d="M4.23496 21.2499C3.25643 17.598 5.42365 13.8442 9.07558 12.8657L48.7501 2.23496C52.402 1.25643 56.1558 3.42365 57.1343 7.07558L67.765 46.7501C68.7436 50.402 66.5763 54.1558 62.9244 55.1343L23.2499 65.765C19.598 66.7436 15.8442 64.5763 14.8657 60.9244L4.23496 21.2499Z" fill="#F97316"/>
<path d="M5.20089 20.9911C4.36529 17.8726 6.21593 14.6672 9.3344 13.8316L49.0089 3.20089C52.1274 2.36529 55.3328 4.21593 56.1684 7.3344L66.7991 47.0089C67.6347 50.1274 65.7841 53.3328 62.6656 54.1684L22.9911 64.7991C19.8726 65.6347 16.6672 63.7841 15.8316 60.6656L5.20089 20.9911Z" stroke="white" stroke-width="2"/>
</g>
<path d="M35.6827 40.7434C34.6442 40.7434 33.6827 40.5044 32.7981 40.0265C31.9327 39.5487 31.2404 38.823 30.7212 37.8496C30.2019 36.8584 29.9423 35.6195 29.9423 34.1327C29.9423 32.646 30.2019 31.4159 30.7212 30.4425C31.2596 29.4513 31.9904 28.7168 32.9135 28.2389C33.8365 27.7434 34.8942 27.4956 36.0865 27.4956C37.9327 27.4956 39.4135 28.0265 40.5288 29.0885C41.6442 30.1504 42.2019 31.6726 42.2019 33.6549V35.1416C42.2019 36.3982 42.2596 37.292 42.375 37.823C42.4904 38.354 42.7788 38.6195 43.2404 38.6195C43.7596 38.6195 44.0769 38.3186 44.1923 37.7168C44.3269 37.0973 44.3942 36.115 44.3942 34.7699C44.3942 32.7522 44.1346 31.0442 43.6154 29.646C43.1154 28.2301 42.2788 27.1504 41.1058 26.4071C39.9327 25.6637 38.3365 25.292 36.3173 25.292C34.2404 25.292 32.5577 25.6726 31.2692 26.4336C30 27.1947 29.0673 28.2389 28.4712 29.5664C27.8942 30.8761 27.6058 32.3805 27.6058 34.0796C27.6058 35.8319 27.9038 37.3805 28.5 38.7257C29.0962 40.0708 29.9904 41.1239 31.1827 41.885C32.3942 42.646 33.9038 43.0265 35.7115 43.0265C36.4423 43.0265 37.0577 42.9823 37.5577 42.8938C38.0577 42.8053 38.5288 42.7611 38.9712 42.7611C39.5096 42.7611 39.8942 42.885 40.125 43.1327C40.375 43.3805 40.5 43.6283 40.5 43.8761C40.5 44.5664 40.1154 45.0885 39.3462 45.4425C38.5769 45.8142 37.4808 46 36.0577 46C33.6731 46 31.5769 45.5133 29.7692 44.5398C27.9615 43.5664 26.5481 42.1858 25.5288 40.3982C24.5096 38.6106 24 36.5133 24 34.1062C24 32.3009 24.2885 30.6549 24.8654 29.1681C25.4615 27.6814 26.2981 26.4071 27.375 25.3451C28.4712 24.2655 29.7692 23.4425 31.2692 22.8761C32.7692 22.292 34.4327 22 36.2596 22C38.6635 22 40.7404 22.4956 42.4904 23.4867C44.2596 24.4779 45.6154 25.8761 46.5577 27.6814C47.5192 29.469 48 31.5929 48 34.0531C48 35.0619 47.9231 36.0354 47.7692 36.9735C47.6154 37.8938 47.375 38.6903 47.0481 39.3628C46.7212 40.0708 46.25 40.6372 45.6346 41.0619C45.0385 41.5044 44.3654 41.7257 43.6154 41.7257C42.5962 41.7257 41.7788 41.3717 41.1635 40.6637C40.5481 39.9558 40.1538 39.0089 39.9808 37.823C39.6538 38.6903 39.125 39.3982 38.3942 39.9469C37.6635 40.4779 36.7596 40.7434 35.6827 40.7434ZM36.0577 37.8496C36.5962 37.8496 37.0577 37.7522 37.4423 37.5575C37.8462 37.3451 38.1538 36.9735 38.3654 36.4425C38.5962 35.8938 38.7115 35.1239 38.7115 34.1327C38.7115 33.1416 38.5962 32.3805 38.3654 31.8496C38.1538 31.3009 37.8462 30.9204 37.4423 30.708C37.0577 30.4956 36.5962 30.3894 36.0577 30.3894C35.2308 30.3894 34.5769 30.6549 34.0962 31.1858C33.6346 31.6991 33.4038 32.6903 33.4038 34.1593C33.4038 35.6106 33.6346 36.5929 34.0962 37.1062C34.5769 37.6018 35.2308 37.8496 36.0577 37.8496Z" fill="white"/>
</g>
<defs>
<filter id="filter0_d_79_2145" x="2" y="0" width="70" height="70" filterUnits="userSpaceOnUse" color-interpolation-filters="sRGB">
<feFlood flood-opacity="0" result="BackgroundImageFix"/>
<feColorMatrix in="SourceAlpha" type="matrix" values="0 0 0 0 0 0 0 0 0 0 0 0 0 0 0 0 0 0 127 0" result="hardAlpha"/>
<feOffset dx="1" dy="1"/>
<feGaussianBlur stdDeviation="1.5"/>
<feComposite in2="hardAlpha" operator="out"/>
<feColorMatrix type="matrix" values="0 0 0 0 0 0 0 0 0 0 0 0 0 0 0 0 0 0 0.02 0"/>
<feBlend mode="normal" in2="BackgroundImageFix" result="effect1_dropShadow_79_2145"/>
<feBlend mode="normal" in="SourceGraphic" in2="effect1_dropShadow_79_2145" result="shape"/>
</filter>
<filter id="filter1_d_79_2145" x="0" y="2" width="72" height="72" filterUnits="userSpaceOnUse" color-interpolation-filters="sRGB">
<feFlood flood-opacity="0" result="BackgroundImageFix"/>
<feColorMatrix in="SourceAlpha" type="matrix" values="0 0 0 0 0 0 0 0 0 0 0 0 0 0 0 0 0 0 127 0" result="hardAlpha"/>
<feOffset dy="4"/>
<feGaussianBlur stdDeviation="2"/>
<feComposite in2="hardAlpha" operator="out"/>
<feColorMatrix type="matrix" values="0 0 0 0 0 0 0 0 0 0 0 0 0 0 0 0 0 0 0.25 0"/>
<feBlend mode="normal" in2="BackgroundImageFix" result="effect1_dropShadow_79_2145"/>
<feBlend mode="normal" in="SourceGraphic" in2="effect1_dropShadow_79_2145" result="shape"/>
</filter>
</defs>
</svg>
